<?xml version="1.0" encoding="UTF-8" standalone="no"?>
<!-- Created with Inkscape (http://www.inkscape.org/) -->

<svg
   xmlns:dc="http://purl.org/dc/elements/1.1/"
   xmlns:cc="http://creativecommons.org/ns#"
   xmlns:rdf="http://www.w3.org/1999/02/22-rdf-syntax-ns#"
   xmlns:svg="http://www.w3.org/2000/svg"
   xmlns="http://www.w3.org/2000/svg"
   xmlns:sodipodi="http://sodipodi.sourceforge.net/DTD/sodipodi-0.dtd"
   xmlns:inkscape="http://www.inkscape.org/namespaces/inkscape"
   sodipodi:docname="thin-gear.svg"
   inkscape:version="0.92.4 (5da689c313, 2019-01-14)"
   id="svg8"
   version="1.1"
   viewBox="0 0 210 210"
   height="210mm"
   width="210mm">
  <defs
     id="defs2" />
  <sodipodi:namedview
     id="base"
     pagecolor="#ffffff"
     bordercolor="#666666"
     borderopacity="1.0"
     inkscape:pageopacity="0.0"
     inkscape:pageshadow="2"
     inkscape:zoom="0.35"
     inkscape:cx="-87.142857"
     inkscape:cy="560"
     inkscape:document-units="mm"
     inkscape:current-layer="layer1"
     showgrid="false"
     inkscape:window-width="1920"
     inkscape:window-height="1017"
     inkscape:window-x="-8"
     inkscape:window-y="-8"
     inkscape:window-maximized="1"
     inkscape:snap-nodes="false" />
  <metadata
     id="metadata5">
    <rdf:RDF>
      <cc:Work
         rdf:about="">
        <dc:format>image/svg+xml</dc:format>
        <dc:type
           rdf:resource="http://purl.org/dc/dcmitype/StillImage" />
        <dc:title></dc:title>
      </cc:Work>
    </rdf:RDF>
  </metadata>
  <g
     inkscape:label="Layer 1"
     inkscape:groupmode="layer"
     id="layer1"
     transform="translate(0,-87)">
    <path
       style="fill:#61dafb;fill-opacity:0;stroke:#000000;stroke-width:4.50151634"
       d="M 386.59961 24.443359 L 374.35938 53.695312 L 370.91211 74.742188 L 371.54688 82.634766 L 339.9668 86.792969 L 338.53711 79.003906 L 329.75977 59.568359 L 310.36719 34.478516 L 290.5625 39.787109 L 286.31055 71.210938 L 288.42773 92.431641 L 291.08398 99.890625 L 261.65625 112.08008 L 258.25977 104.92578 L 244.75195 88.423828 L 219.52539 69.210938 L 201.76953 79.462891 L 205.79492 110.91602 L 213.33203 130.86523 L 217.83008 137.38281 L 192.55859 156.77344 L 187.42578 150.74414 L 170.10742 138.29883 L 140.76758 126.26953 L 126.26953 140.76758 L 138.29883 170.10742 L 150.74414 187.42578 L 156.77344 192.55859 L 137.38281 217.83008 L 130.86523 213.33203 L 110.91602 205.79492 L 79.462891 201.76953 L 69.210938 219.52539 L 88.423828 244.75195 L 104.92578 258.25977 L 112.08008 261.65625 L 99.890625 291.08398 L 92.431641 288.42773 L 71.210938 286.31055 L 39.787109 290.5625 L 34.480469 310.36719 L 59.568359 329.75977 L 79.003906 338.53711 L 86.792969 339.9668 L 82.634766 371.54688 L 74.742188 370.91211 L 53.695312 374.35938 L 24.443359 386.59961 L 24.443359 407.10156 L 53.695312 419.3418 L 74.742188 422.78906 L 82.634766 422.1543 L 86.792969 453.73438 L 79.003906 455.16406 L 59.568359 463.93945 L 34.480469 483.33398 L 39.787109 503.13867 L 71.210938 507.39062 L 92.431641 505.27344 L 99.890625 502.61719 L 112.08008 532.04492 L 104.92578 535.44141 L 88.423828 548.94922 L 69.210938 574.17578 L 79.462891 591.93164 L 110.91602 587.90625 L 130.86523 580.36914 L 137.38281 575.87109 L 156.77344 601.14258 L 150.74414 606.27344 L 138.29883 623.59375 L 126.26953 652.93359 L 140.76758 667.43164 L 170.10742 655.40039 L 187.42578 642.95703 L 192.55859 636.92578 L 217.83008 656.31836 L 213.33203 662.83594 L 205.79492 682.78516 L 201.76953 714.23828 L 219.52539 724.49023 L 244.75195 705.27734 L 258.25977 688.77344 L 261.65625 681.62109 L 291.08398 693.81055 L 288.42773 701.26953 L 286.31055 722.49023 L 290.5625 753.91406 L 310.36719 759.2207 L 329.75977 734.13281 L 338.53711 714.69727 L 339.9668 706.9082 L 371.54688 711.06641 L 370.91211 718.95898 L 374.35938 740.00391 L 386.59961 769.25781 L 407.10156 769.25781 L 419.3418 740.00391 L 422.78906 718.95898 L 422.1543 711.06641 L 453.73438 706.9082 L 455.16406 714.69727 L 463.93945 734.13281 L 483.33398 759.2207 L 503.13867 753.91406 L 507.39062 722.49023 L 505.27344 701.26953 L 502.61719 693.81055 L 532.04492 681.62109 L 535.44141 688.77344 L 548.94922 705.27734 L 574.17578 724.49023 L 591.93164 714.23828 L 587.90625 682.78516 L 580.36914 662.83594 L 575.87109 656.31836 L 601.14258 636.92578 L 606.27344 642.95703 L 623.59375 655.40039 L 652.93359 667.43164 L 667.43164 652.93359 L 655.40039 623.59375 L 642.95703 606.27344 L 636.92578 601.14258 L 656.31836 575.87109 L 662.83594 580.36914 L 682.78516 587.90625 L 714.23828 591.93164 L 724.49023 574.17578 L 705.27734 548.94922 L 688.77344 535.44141 L 681.62109 532.04492 L 693.81055 502.61719 L 701.26953 505.27344 L 722.49023 507.39062 L 753.91406 503.13867 L 759.2207 483.33398 L 734.13281 463.93945 L 714.69727 455.16406 L 706.9082 453.73438 L 711.06641 422.1543 L 718.95898 422.78906 L 740.00391 419.3418 L 769.25781 407.10156 L 769.25781 386.59961 L 740.00391 374.35938 L 718.95898 370.91211 L 711.06641 371.54688 L 706.9082 339.9668 L 714.69727 338.53711 L 734.13281 329.75977 L 759.2207 310.36719 L 753.91406 290.5625 L 722.49023 286.31055 L 701.26953 288.42773 L 693.81055 291.08398 L 681.62109 261.65625 L 688.77344 258.25977 L 705.27734 244.75195 L 724.49023 219.52539 L 714.23828 201.76953 L 682.78516 205.79492 L 662.83594 213.33203 L 656.31836 217.83008 L 636.92578 192.55859 L 642.95703 187.42578 L 655.40039 170.10742 L 667.43164 140.76758 L 652.93359 126.26953 L 623.59375 138.29883 L 606.27344 150.74414 L 601.14258 156.77344 L 575.87109 137.38281 L 580.36914 130.86523 L 587.90625 110.91602 L 591.93164 79.462891 L 574.17578 69.210938 L 548.94922 88.423828 L 535.44141 104.92578 L 532.04492 112.08008 L 502.61719 99.890625 L 505.27344 92.431641 L 507.39062 71.210938 L 503.13867 39.787109 L 483.33398 34.478516 L 463.93945 59.568359 L 455.16406 79.003906 L 453.73438 86.792969 L 422.1543 82.634766 L 422.78906 74.742188 L 419.3418 53.695312 L 407.10156 24.443359 L 386.59961 24.443359 z M 396.84961 107.62695 A 289.22322 289.22322 0 0 1 524.90625 137.91016 L 424.76758 311.35156 A 90 90 0 0 0 396.84961 306.84961 A 90 90 0 0 0 368.95898 311.39844 L 268.69336 137.73438 A 289.22322 289.22322 0 0 1 396.84961 107.62695 z M 238.89062 154.68555 L 338.97852 328.04492 A 90 90 0 0 0 308.5332 379.70703 L 108.48438 379.70703 A 289.22322 289.22322 0 0 1 238.89062 154.68555 z M 554.73242 154.81641 A 289.22322 289.22322 0 0 1 685.4668 379.70703 L 485.12695 379.70703 A 90 90 0 0 0 454.76562 327.96484 L 554.73242 154.81641 z M 396.84961 332.56445 A 64.285713 64.285713 0 0 1 461.13672 396.84961 A 64.285713 64.285713 0 0 1 396.84961 461.13672 A 64.285713 64.285713 0 0 1 332.56445 396.84961 A 64.285713 64.285713 0 0 1 396.84961 332.56445 z M 108.23438 413.99414 L 308.57422 413.99414 A 90 90 0 0 0 336.78516 463.74219 L 236.5293 637.38867 A 289.22322 289.22322 0 0 1 108.23438 413.99414 z M 485.16797 413.99414 L 685.2168 413.99414 A 289.22322 289.22322 0 0 1 557.14453 637.3457 L 456.91016 463.73438 A 90 90 0 0 0 485.16797 413.99414 z M 366.20703 481.35352 A 90 90 0 0 0 396.84961 486.84961 A 90 90 0 0 0 427.50977 481.38281 L 527.62891 654.79297 A 289.22322 289.22322 0 0 1 396.84961 686.07422 A 289.22322 289.22322 0 0 1 266.21484 654.54492 L 366.20703 481.35352 z "
       transform="matrix(0.26458333,0,0,0.26458333,0,87)"
       id="path818" />
  </g>
</svg>
