<?xml version="1.0" encoding="UTF-8" standalone="no"?>
<!-- Created with Inkscape (http://www.inkscape.org/) -->

<svg
   xmlns:dc="http://purl.org/dc/elements/1.1/"
   xmlns:cc="http://creativecommons.org/ns#"
   xmlns:rdf="http://www.w3.org/1999/02/22-rdf-syntax-ns#"
   xmlns:svg="http://www.w3.org/2000/svg"
   xmlns="http://www.w3.org/2000/svg"
   xmlns:sodipodi="http://sodipodi.sourceforge.net/DTD/sodipodi-0.dtd"
   xmlns:inkscape="http://www.inkscape.org/namespaces/inkscape"
   width="100mm"
   height="100mm"
   viewBox="0 0 100 100"
   version="1.1"
   id="svg8"
   inkscape:version="0.92.4 (5da689c313, 2019-01-14)"
   sodipodi:docname="instaicon.svg">
  <defs
     id="defs2" />
  <sodipodi:namedview
     id="base"
     pagecolor="#ffffff"
     bordercolor="#666666"
     borderopacity="1.0"
     inkscape:pageopacity="0.0"
     inkscape:pageshadow="2"
     inkscape:zoom="0.98994949"
     inkscape:cx="492.46377"
     inkscape:cy="-9.5377153"
     inkscape:document-units="mm"
     inkscape:current-layer="layer1"
     showgrid="false"
     inkscape:window-width="1920"
     inkscape:window-height="1017"
     inkscape:window-x="-8"
     inkscape:window-y="-8"
     inkscape:window-maximized="1"
     showguides="false"
     inkscape:object-nodes="false" />
  <metadata
     id="metadata5">
    <rdf:RDF>
      <cc:Work
         rdf:about="">
        <dc:format>image/svg+xml</dc:format>
        <dc:type
           rdf:resource="http://purl.org/dc/dcmitype/StillImage" />
        <dc:title></dc:title>
      </cc:Work>
    </rdf:RDF>
  </metadata>
  <g
     inkscape:label="Layer 1"
     inkscape:groupmode="layer"
     id="layer1"
     transform="translate(0,-197)">
    <circle
       style="fill:#4ecdc4;fill-opacity:1;stroke:#000000;stroke-width:4;stroke-miterlimit:4;stroke-dasharray:none;stroke-opacity:1"
       id="path815"
       cx="50"
       cy="247"
       r="41.955357" />
    <circle
       style="fill:none;fill-opacity:1;stroke:#000000;stroke-width:2.5;stroke-miterlimit:4;stroke-dasharray:none;stroke-opacity:1"
       id="path865"
       cx="63.464882"
       cy="233.61993"
       r="3.6033781"
       inkscape:transform-center-x="3.0238095"
       inkscape:transform-center-y="-16.252976" />
    <path
       style="fill:none;stroke:#000000;stroke-width:4;stroke-linecap:butt;stroke-linejoin:miter;stroke-miterlimit:4;stroke-dasharray:none;stroke-opacity:1"
       d="m 60.854169,247 h 10.58333"
       id="path975"
       inkscape:connector-curvature="0" />
    <path
       inkscape:connector-curvature="0"
       id="path977"
       d="m 28.726192,247 h 10.58333"
       style="fill:none;stroke:#000000;stroke-width:4;stroke-linecap:butt;stroke-linejoin:miter;stroke-miterlimit:4;stroke-dasharray:none;stroke-opacity:1" />
    <circle
       style="fill:none;fill-opacity:1;stroke:#000000;stroke-width:4;stroke-miterlimit:4;stroke-dasharray:none;stroke-opacity:1"
       id="path863"
       cx="50"
       cy="247"
       r="10.611169" />
    <path
       style="fill:none;stroke:#000000;stroke-width:4;stroke-linecap:butt;stroke-linejoin:miter;stroke-miterlimit:4;stroke-dasharray:none;stroke-opacity:1"
       d="m 35.906424,224.85295 h 28.187152 c 4.46163,0 8.05348,3.59185 8.05348,8.05347 v 28.18716 c 0,4.46162 -3.59185,8.05347 -8.05348,8.05347 H 35.906424 c -4.46164,0 -8.05348,-3.59185 -8.05348,-8.05347 v -28.18716 c 0,-4.46162 3.59184,-8.05347 8.05348,-8.05347 z"
       id="path896"
       inkscape:connector-curvature="0" />
    <path
       style="opacity:1;vector-effect:none;fill:#000000;fill-opacity:1;stroke:#000000;stroke-width:4;stroke-linecap:butt;stroke-linejoin:miter;stroke-miterlimit:4;stroke-dasharray:none;stroke-dashoffset:0;stroke-opacity:1"
       d="m 30.616073,237.32097 c 0,-6.25209 0.158972,-6.9969 1.855517,-8.69345 1.842259,-1.84226 1.957062,-1.85518 16.063989,-1.8076 8.977156,0.0303 13.600425,0.2929 12.556993,0.71331 -2.297854,0.92583 -3.501009,3.52199 -3.016343,6.50865 0.397785,2.45126 0.360683,2.49451 -1.24083,1.44643 -3.039133,-1.98888 -7.54781,-2.21734 -11.269575,-0.57102 -3.485708,1.54189 -7.39023,5.76332 -7.39023,7.99005 0,0.99791 -0.766048,1.25157 -3.779761,1.25157 h -3.77976 z"
       id="path979"
       inkscape:connector-curvature="0" />
    <path
       style="opacity:1;vector-effect:none;fill:#000000;fill-opacity:1;stroke:#000000;stroke-width:4;stroke-linecap:butt;stroke-linejoin:miter;stroke-miterlimit:4;stroke-dasharray:none;stroke-dashoffset:0;stroke-opacity:1"
       d="m 62.195784,241.95947 -1.462217,-2.9554 2.461609,0.39946 c 1.976033,0.32067 2.863474,-0.002 4.498853,-1.63778 1.721229,-1.72123 1.975525,-2.49741 1.639351,-5.00376 -0.225597,-1.68196 -0.10169,-2.78345 0.286149,-2.54375 0.376224,0.23252 0.684041,3.63438 0.684041,7.55969 v 7.13694 h -3.322786 c -3.110452,0 -3.416226,-0.18886 -4.785,-2.9554 z"
       id="path981"
       inkscape:connector-curvature="0" />
    <path
       style="opacity:1;vector-effect:none;fill:#000000;fill-opacity:1;stroke:#000000;stroke-width:5.39932537;stroke-linecap:butt;stroke-linejoin:miter;stroke-miterlimit:4;stroke-dasharray:none;stroke-dashoffset:0;stroke-opacity:1"
       d="m 251.88616,124.61445 c -3.16731,-2.95456 -7.61722,-4.64246 -12.23918,-4.64246 -1.16891,0 -2.12528,-0.0464 -2.12528,-0.10305 0,-0.0567 0.32143,-0.73352 0.71429,-1.50409 0.47689,-0.93541 0.71428,-2.10613 0.71428,-3.52264 v -2.12162 l 3.71379,0.22723 c 4.87756,0.29844 8.63598,1.48597 12.15768,3.84143 1.4754,0.98681 2.78488,1.95979 2.90997,2.16218 0.12509,0.2024 -0.26369,0.87643 -0.86394,1.49785 -1.22161,1.26468 -2.54057,3.92468 -2.55251,5.14771 -0.004,0.44197 -0.12838,0.79745 -0.2757,0.78996 -0.14732,-0.007 -1.11635,-0.80511 -2.1534,-1.7725 z"
       id="path1003"
       inkscape:connector-curvature="0"
       transform="matrix(0.26458333,0,0,0.26458333,0,197)" />
  </g>
</svg>
