<?xml version="1.0" encoding="UTF-8" standalone="no"?>
<!-- Created with Inkscape (http://www.inkscape.org/) -->

<svg
   xmlns:dc="http://purl.org/dc/elements/1.1/"
   xmlns:cc="http://creativecommons.org/ns#"
   xmlns:rdf="http://www.w3.org/1999/02/22-rdf-syntax-ns#"
   xmlns:svg="http://www.w3.org/2000/svg"
   xmlns="http://www.w3.org/2000/svg"
   xmlns:sodipodi="http://sodipodi.sourceforge.net/DTD/sodipodi-0.dtd"
   xmlns:inkscape="http://www.inkscape.org/namespaces/inkscape"
   width="100mm"
   height="100mm"
   viewBox="0 0 100 100"
   version="1.1"
   id="svg8"
   inkscape:version="0.92.4 (5da689c313, 2019-01-14)"
   sodipodi:docname="twittericon.svg">
  <defs
     id="defs2" />
  <sodipodi:namedview
     id="base"
     pagecolor="#ffffff"
     bordercolor="#666666"
     borderopacity="1.0"
     inkscape:pageopacity="0.0"
     inkscape:pageshadow="2"
     inkscape:zoom="0.7"
     inkscape:cx="573.47582"
     inkscape:cy="214.57377"
     inkscape:document-units="mm"
     inkscape:current-layer="layer1"
     showgrid="false"
     inkscape:window-width="1920"
     inkscape:window-height="1017"
     inkscape:window-x="-8"
     inkscape:window-y="-8"
     inkscape:window-maximized="1"
     showguides="true"
     inkscape:object-nodes="false" />
  <metadata
     id="metadata5">
    <rdf:RDF>
      <cc:Work
         rdf:about="">
        <dc:format>image/svg+xml</dc:format>
        <dc:type
           rdf:resource="http://purl.org/dc/dcmitype/StillImage" />
        <dc:title></dc:title>
      </cc:Work>
    </rdf:RDF>
  </metadata>
  <g
     inkscape:label="Layer 1"
     inkscape:groupmode="layer"
     id="layer1"
     transform="translate(0,-197)">
    <circle
       style="fill:#4ecdc4;fill-opacity:1;stroke:#000000;stroke-width:4;stroke-miterlimit:4;stroke-dasharray:none;stroke-opacity:1"
       id="path815"
       cx="50"
       cy="247"
       r="41.955357" />
    <path
       style="fill:#000000;fill-opacity:1;stroke:#000000;stroke-width:0.62435734;stroke-miterlimit:4;stroke-dasharray:none;stroke-opacity:1"
       d="m 58.280191,226.689 c -4.349194,-0.0958 -7.947171,3.61511 -8.036407,8.28849 -0.02447,1.49179 0.318725,2.96399 0.99446,4.26741 -5.722616,-0.90209 -14.143806,-4.8662 -19.074538,-9.473 -0.886476,2.50419 -0.06348,10.67012 6.050234,14.1666 1.901202,1.78758 -0.437188,-0.76621 1.20196,0.48136 -2.067573,-0.60454 -4.989055,-1.57757 -7.036361,-2.66964 0.09347,2.28684 2.497618,7.94906 5.724037,9.92291 0.83761,0.57149 1.715819,1.09682 2.625638,1.57721 -1.721837,0.003 -3.777639,-0.45613 -5.572313,-0.75366 0.733528,2.14907 3.490258,6.46993 7.121496,7.30121 0.118463,0.0337 0.235804,0.0644 0.35387,0.0972 -3.959748,1.57277 -8.250917,1.91922 -12.384937,0.99988 1.469237,1.4643 3.113607,2.71158 4.889667,3.70884 11.059224,6.14666 24.661694,1.49562 30.381468,-10.38821 2.809498,-5.87782 3.262522,-12.73381 1.254065,-18.97923 1.349221,-1.2595 2.592608,-2.87039 3.691775,-4.78298 -1.49572,1.15953 -3.080017,1.8863 -4.696582,2.15453 -0.0485,-0.11145 -0.09779,-0.22246 -0.147889,-0.33307 1.335797,-1.25427 2.567249,-2.85343 3.656928,-4.74897 -1.632006,1.25718 -3.367629,1.99894 -5.13377,2.19407 -1.456543,-1.87087 -3.593381,-2.97556 -5.862801,-3.0309 z"
       id="path1009"
       inkscape:connector-curvature="0"
       sodipodi:nodetypes="cccccccccccccccccccccc" />
  </g>
</svg>
