<?xml version="1.0" encoding="UTF-8" standalone="no"?>
<!-- Created with Inkscape (http://www.inkscape.org/) -->

<svg
   xmlns:dc="http://purl.org/dc/elements/1.1/"
   xmlns:cc="http://creativecommons.org/ns#"
   xmlns:rdf="http://www.w3.org/1999/02/22-rdf-syntax-ns#"
   xmlns:svg="http://www.w3.org/2000/svg"
   xmlns="http://www.w3.org/2000/svg"
   xmlns:sodipodi="http://sodipodi.sourceforge.net/DTD/sodipodi-0.dtd"
   xmlns:inkscape="http://www.inkscape.org/namespaces/inkscape"
   width="210mm"
   height="210mm"
   viewBox="0 0 210 210"
   version="1.1"
   id="svg8"
   inkscape:version="0.92.4 (5da689c313, 2019-01-14)"
   sodipodi:docname="gear-with-holes.svg">
  <defs
     id="defs2" />
  <sodipodi:namedview
     id="base"
     pagecolor="#ffffff"
     bordercolor="#666666"
     borderopacity="1.0"
     inkscape:pageopacity="0.0"
     inkscape:pageshadow="2"
     inkscape:zoom="0.98994949"
     inkscape:cx="146.87286"
     inkscape:cy="626.70053"
     inkscape:document-units="mm"
     inkscape:current-layer="layer1"
     showgrid="false"
     inkscape:window-width="1920"
     inkscape:window-height="1017"
     inkscape:window-x="-8"
     inkscape:window-y="-8"
     inkscape:window-maximized="1"
     inkscape:object-nodes="false" />
  <metadata
     id="metadata5">
    <rdf:RDF>
      <cc:Work
         rdf:about="">
        <dc:format>image/svg+xml</dc:format>
        <dc:type
           rdf:resource="http://purl.org/dc/dcmitype/StillImage" />
        <dc:title />
      </cc:Work>
    </rdf:RDF>
  </metadata>
  <g
     inkscape:label="Layer 1"
     inkscape:groupmode="layer"
     id="layer1"
     transform="translate(0,-87)">
    <path
       style="fill:#4ECDC4;fill-opacity:1;stroke:#000103;stroke-width:7.55905522;stroke-miterlimit:4;stroke-dasharray:none;stroke-opacity:1"
       d="M 389.88672 20.166016 L 374.10547 49.826172 L 365.89258 79.570312 L 344.63477 82.367188 L 329.00391 55.763672 L 306.08398 31.199219 L 292.63086 34.802734 L 285.06445 67.539062 L 284.83008 98.392578 L 265.01953 106.59766 L 243.03711 84.947266 L 214.53906 67.150391 L 202.47656 74.113281 L 203.64062 107.69141 L 211.40039 137.55664 L 194.38867 150.60938 L 167.55078 135.38477 L 135.41797 125.57031 L 125.57031 135.41797 L 135.38477 167.55078 L 150.60938 194.38867 L 137.55664 211.40039 L 107.69141 203.64062 L 74.113281 202.47656 L 67.150391 214.53906 L 84.947266 243.03711 L 106.59766 265.01953 L 98.392578 284.83008 L 67.539062 285.06445 L 34.802734 292.63086 L 31.199219 306.08398 L 55.763672 329.00391 L 82.367188 344.63477 L 79.570312 365.89258 L 49.826172 374.10547 L 20.166016 389.88672 L 20.166016 403.81445 L 49.826172 419.5957 L 79.570312 427.80859 L 82.367188 449.06641 L 55.763672 464.69727 L 31.199219 487.61719 L 34.802734 501.07031 L 67.539062 508.63672 L 98.392578 508.87109 L 106.59766 528.67969 L 84.947266 550.66406 L 67.150391 579.16211 L 74.113281 591.22461 L 107.69141 590.06055 L 137.55664 582.30078 L 150.60938 599.31055 L 135.38477 626.15039 L 125.57031 658.28125 L 135.41797 668.13086 L 167.55078 658.31641 L 194.38867 643.0918 L 211.40039 656.14453 L 203.64062 686.00977 L 202.47656 719.58594 L 214.53906 726.55078 L 243.03711 708.75391 L 265.01953 687.10156 L 284.83008 695.30859 L 285.06445 726.16211 L 292.63086 758.89648 L 306.08398 762.50195 L 329.00391 737.93555 L 344.63477 711.33203 L 365.89258 714.13086 L 374.10547 743.87305 L 389.88672 773.53516 L 403.81445 773.53516 L 419.5957 743.87305 L 427.80859 714.13086 L 449.06641 711.33203 L 464.69727 737.93555 L 487.61719 762.50195 L 501.07031 758.89648 L 508.63672 726.16211 L 508.87109 695.30859 L 528.67969 687.10156 L 550.66406 708.75391 L 579.16211 726.55078 L 591.22461 719.58594 L 590.06055 686.00977 L 582.30078 656.14453 L 599.31055 643.0918 L 626.15039 658.31641 L 658.28125 668.13086 L 668.13086 658.28125 L 658.31641 626.15039 L 643.0918 599.31055 L 656.14453 582.30078 L 686.00977 590.06055 L 719.58594 591.22461 L 726.55078 579.16211 L 708.75391 550.66406 L 687.10156 528.67969 L 695.30859 508.87109 L 726.16211 508.63672 L 758.89648 501.07031 L 762.50195 487.61719 L 737.93555 464.69727 L 711.33203 449.06641 L 714.13086 427.80859 L 743.87305 419.5957 L 773.53516 403.81445 L 773.53516 389.88672 L 743.87305 374.10547 L 714.13086 365.89258 L 711.33203 344.63477 L 737.93555 329.00391 L 762.50195 306.08398 L 758.89648 292.63086 L 726.16211 285.06445 L 695.30859 284.83008 L 687.10156 265.01953 L 708.75391 243.03711 L 726.55078 214.53906 L 719.58594 202.47656 L 686.00977 203.64062 L 656.14453 211.40039 L 643.0918 194.38867 L 658.31641 167.55078 L 668.13086 135.41797 L 658.28125 125.57031 L 626.15039 135.38477 L 599.31055 150.60938 L 582.30078 137.55664 L 590.06055 107.69141 L 591.22461 74.113281 L 579.16211 67.150391 L 550.66406 84.947266 L 528.67969 106.59766 L 508.87109 98.392578 L 508.63672 67.539062 L 501.07031 34.802734 L 487.61719 31.199219 L 464.69727 55.763672 L 449.06641 82.367188 L 427.80859 79.570312 L 419.5957 49.826172 L 403.81445 20.166016 L 389.88672 20.166016 z M 431.13672 136.1582 A 263.21859 263.21859 0 0 1 657.50977 362.56445 L 473.73242 362.56445 A 84.285712 84.285712 0 0 0 431.13672 319.92578 L 431.13672 136.1582 z M 362.56445 136.19336 L 362.56445 319.9707 A 84.285712 84.285712 0 0 0 319.92578 362.56641 L 136.1582 362.56641 A 263.21859 263.21859 0 0 1 362.56445 136.19336 z M 396.84961 155.42188 A 18.571429 18.571429 0 0 1 415.42188 173.99414 A 18.571429 18.571429 0 0 1 396.84961 192.56445 A 18.571429 18.571429 0 0 1 378.2793 173.99414 A 18.571429 18.571429 0 0 1 396.84961 155.42188 z M 396.84961 255.42188 A 18.571429 18.571429 0 0 1 415.42188 273.99414 A 18.571429 18.571429 0 0 1 396.84961 292.56445 A 18.571429 18.571429 0 0 1 378.2793 273.99414 A 18.571429 18.571429 0 0 1 396.84961 255.42188 z M 396.84961 346.84961 A 50 50 0 0 1 446.84961 396.84961 A 50 50 0 0 1 396.84961 446.84961 A 50 50 0 0 1 346.84961 396.84961 A 50 50 0 0 1 396.84961 346.84961 z M 173.99414 378.2793 A 18.571429 18.571429 0 0 1 192.56445 396.84961 A 18.571429 18.571429 0 0 1 173.99414 415.42188 A 18.571429 18.571429 0 0 1 155.42188 396.84961 A 18.571429 18.571429 0 0 1 173.99414 378.2793 z M 279.70703 378.2793 A 18.571429 18.571429 0 0 1 298.2793 396.84961 A 18.571429 18.571429 0 0 1 279.70703 415.42188 A 18.571429 18.571429 0 0 1 261.13672 396.84961 A 18.571429 18.571429 0 0 1 279.70703 378.2793 z M 516.84961 378.2793 A 18.571429 18.571429 0 0 1 535.42188 396.84961 A 18.571429 18.571429 0 0 1 516.84961 415.42188 A 18.571429 18.571429 0 0 1 498.2793 396.84961 A 18.571429 18.571429 0 0 1 516.84961 378.2793 z M 619.70703 378.2793 A 18.571429 18.571429 0 0 1 638.2793 396.84961 A 18.571429 18.571429 0 0 1 619.70703 415.42188 A 18.571429 18.571429 0 0 1 601.13672 396.84961 A 18.571429 18.571429 0 0 1 619.70703 378.2793 z M 319.96875 431.13672 A 84.285712 84.285712 0 0 0 362.56445 473.77539 L 362.56445 657.54492 A 263.21859 263.21859 0 0 1 136.19336 431.13867 L 319.96875 431.13672 z M 473.77539 431.13867 L 657.54297 431.13867 A 263.21859 263.21859 0 0 1 431.13672 657.50977 L 431.13672 473.73438 A 84.285712 84.285712 0 0 0 473.77539 431.13867 z M 396.84961 501.13672 A 18.571429 18.571429 0 0 1 415.42188 519.70703 A 18.571429 18.571429 0 0 1 396.84961 538.2793 A 18.571429 18.571429 0 0 1 378.2793 519.70703 A 18.571429 18.571429 0 0 1 396.84961 501.13672 z M 396.84961 601.13672 A 18.571429 18.571429 0 0 1 415.42188 619.70703 A 18.571429 18.571429 0 0 1 396.84961 638.2793 A 18.571429 18.571429 0 0 1 378.2793 619.70703 A 18.571429 18.571429 0 0 1 396.84961 601.13672 z "
       transform="matrix(0.26458333,0,0,0.26458333,0,87)"
       id="path1263" />
  </g>
</svg>
